<svg width="27" height="27" viewBox="0 0 27 27" fill="none" xmlns="http://www.w3.org/2000/svg">
<g clip-path="url(#clip0)">
<path d="M15.3075 13.6233C15.3075 17.7003 11.9934 21.0061 7.90335 21.0061C6.93254 21.0074 5.97097 20.8175 5.07356 20.4472C4.17614 20.0768 3.36046 19.5334 2.67307 18.8478C1.98569 18.1623 1.44006 17.348 1.06735 16.4516C0.694642 15.5552 0.502146 14.5941 0.500854 13.6233C0.500854 9.54471 3.81492 6.24049 7.90335 6.24049C8.87431 6.23898 9.83605 6.42876 10.7337 6.79898C11.6313 7.1692 12.4471 7.71262 13.1347 8.3982C13.8223 9.08378 14.368 9.89809 14.7408 10.7946C15.1137 11.6912 15.3062 12.6523 15.3075 13.6233ZM23.4286 13.6233C23.4286 17.4624 21.7716 20.573 19.7273 20.573C17.6831 20.573 16.0261 17.4607 16.0261 13.6233C16.0261 9.78424 17.6831 6.67361 19.7273 6.67361C21.7716 6.67361 23.4286 9.78588 23.4286 13.6233ZM26.7509 13.6233C26.7509 17.0621 26.1684 19.8495 25.4482 19.8495C24.7296 19.8495 24.1472 17.0604 24.1472 13.6233C24.1472 10.1846 24.7296 7.39713 25.4498 7.39713C26.1684 7.39713 26.7509 10.1846 26.7509 13.6233Z" fill="#F6F6F6"/>
</g>
<defs>
<clipPath id="clip0">
<rect width="26.25" height="26.25" fill="white" transform="translate(0.500854 0.498291)"/>
</clipPath>
</defs>
</svg>
