<svg width="30" height="30" viewBox="0 0 30 30" fill="none" xmlns="http://www.w3.org/2000/svg">
<path d="M4.12887 13.9567L9.07136 15.8013L10.9844 21.9537C11.1068 22.3477 11.5887 22.4934 11.9085 22.2319L14.6635 19.9859C14.9523 19.7506 15.3636 19.7389 15.6654 19.958L20.6345 23.5656C20.9766 23.8143 21.4613 23.6269 21.5471 23.2134L25.1873 5.7038C25.2809 5.25221 24.8372 4.87547 24.4072 5.04178L4.12308 12.8668C3.62251 13.0598 3.62687 13.7685 4.12887 13.9567ZM10.6761 14.8194L20.3356 8.87009C20.5092 8.76349 20.6878 8.99822 20.5387 9.1365L12.5668 16.5467C12.2866 16.8076 12.1059 17.1566 12.0547 17.5355L11.7831 19.5479C11.7472 19.8166 11.3697 19.8433 11.2956 19.5833L10.2512 15.9135C10.1316 15.495 10.3059 15.0479 10.6761 14.8194Z" fill="#F6F6F6"/>
</svg>
