<svg width="14" height="12" viewBox="0 0 14 12" fill="none" xmlns="http://www.w3.org/2000/svg">
<path d="M0.333252 0.999837C0.333252 0.778823 0.421049 0.566862 0.57733 0.410582C0.73361 0.254301 0.945572 0.166504 1.16659 0.166504H12.8333C13.0543 0.166504 13.2662 0.254301 13.4225 0.410582C13.5788 0.566862 13.6666 0.778823 13.6666 0.999837C13.6666 1.22085 13.5788 1.43281 13.4225 1.58909C13.2662 1.74537 13.0543 1.83317 12.8333 1.83317H1.16659C0.945572 1.83317 0.73361 1.74537 0.57733 1.58909C0.421049 1.43281 0.333252 1.22085 0.333252 0.999837Z" fill="#F6F6F6"/>
<path d="M0.333252 10.9998C0.333252 10.7788 0.421049 10.5669 0.57733 10.4106C0.73361 10.2543 0.945572 10.1665 1.16659 10.1665H12.8333C13.0543 10.1665 13.2662 10.2543 13.4225 10.4106C13.5788 10.5669 13.6666 10.7788 13.6666 10.9998C13.6666 11.2209 13.5788 11.4328 13.4225 11.5891C13.2662 11.7454 13.0543 11.8332 12.8333 11.8332H1.16659C0.945572 11.8332 0.73361 11.7454 0.57733 11.5891C0.421049 11.4328 0.333252 11.2209 0.333252 10.9998Z" fill="#F6F6F6"/>
<path d="M6.16659 5.1665C5.94557 5.1665 5.73361 5.2543 5.57733 5.41058C5.42105 5.56686 5.33325 5.77882 5.33325 5.99984C5.33325 6.22085 5.42105 6.43281 5.57733 6.58909C5.73361 6.74537 5.94557 6.83317 6.16659 6.83317H12.8333C13.0543 6.83317 13.2662 6.74537 13.4225 6.58909C13.5788 6.43281 13.6666 6.22085 13.6666 5.99984C13.6666 5.77882 13.5788 5.56686 13.4225 5.41058C13.2662 5.2543 13.0543 5.1665 12.8333 5.1665H6.16659Z" fill="#F6F6F6"/>
</svg>
